<svg xmlns="http://www.w3.org/2000/svg" version="1.1" xmlns:xlink="http://www.w3.org/1999/xlink" xmlns:svgjs="http://svgjs.com/svgjs" width="316" height="376"><svg xmlns="http://www.w3.org/2000/svg" width="316" height="376" viewBox="0 0 316 376" version="1.1"><path d="M 135.500 38.600 C 132.750 38.803, 128.250 39.421, 125.500 39.972 C 108.067 43.468, 103.827 44.434, 98 46.235 C 80.416 51.670, 65.301 60.657, 54.454 72.126 C 32.514 95.325, 29.192 128.649, 44.409 172.874 C 46.231 178.168, 48.717 184.750, 49.933 187.500 C 51.149 190.250, 52.844 194.075, 53.699 196 C 56.788 202.957, 66.106 221.207, 68.525 225.040 C 69.886 227.196, 71 229.185, 71 229.461 C 71 229.736, 72.575 232.423, 74.500 235.433 C 76.425 238.442, 78 241.132, 78 241.412 C 78 242.261, 100.112 277.062, 104.963 283.847 C 107.458 287.338, 110.400 291.449, 111.500 292.983 C 114.031 296.513, 119.317 303.342, 120.029 304 C 120.326 304.275, 121.589 305.850, 122.836 307.500 C 128.754 315.333, 142.734 328.211, 148.383 331.033 C 155.771 334.725, 160.058 334.776, 166.795 331.250 C 175.976 326.446, 184.954 317.621, 201.532 297.106 C 205.665 291.992, 228.588 257.608, 232.271 251 C 233.650 248.525, 237.149 242.450, 240.046 237.500 C 250.122 220.285, 252.152 216.527, 258.123 204.050 C 267.692 184.054, 268.763 181.340, 274.916 161.500 C 276.204 157.349, 278.582 145.132, 280.051 135.117 C 281.004 128.622, 281.019 124.795, 280.115 118.117 C 278.886 109.027, 276.218 96.536, 274.966 94.004 C 274.557 93.177, 273.384 90.700, 272.361 88.500 C 266.945 76.859, 254.818 64.246, 242.469 57.410 C 241.386 56.811, 238.475 55.200, 236 53.832 C 227.795 49.296, 211.766 44.001, 200 41.941 C 196.425 41.315, 191.700 40.368, 189.500 39.836 C 185.442 38.855, 144.665 37.922, 135.500 38.600 M 195.908 112.425 C 195.544 112.789, 189.375 113.464, 158 116.572 C 136.646 118.687, 132.775 119.413, 131.364 121.568 C 130.198 123.346, 129.998 129.926, 130.225 158.939 L 130.500 194.151 127.500 193.473 C 118.721 191.488, 116.061 191.258, 111.155 192.056 C 108.111 192.552, 103.728 194.249, 101.039 195.975 C 91.658 201.994, 90.774 211.228, 98.911 218.191 C 106.467 224.658, 119.938 225.875, 129.497 220.956 C 138.808 216.165, 138.460 217.785, 138.788 177.691 C 138.946 158.349, 139.447 142.153, 139.900 141.700 C 140.354 141.246, 144.949 140.459, 150.112 139.950 C 170.919 137.899, 188.782 136.036, 193.750 135.397 L 199 134.721 199 160.861 C 199 175.237, 198.887 186.995, 198.750 186.989 C 198.613 186.983, 196.291 186.308, 193.591 185.489 C 183.652 182.474, 174.194 184.394, 166.843 190.917 C 162.838 194.472, 162.609 194.972, 162.556 200.286 C 162.504 205.498, 162.780 206.187, 166.417 209.913 C 172.988 216.646, 183.691 218.766, 194.662 215.508 C 200.055 213.906, 205.495 209.458, 207.044 205.384 C 208.533 201.467, 208.304 114.704, 206.800 113.200 C 205.690 112.090, 196.871 111.462, 195.908 112.425" stroke="none" fill="#1773bc" fill-rule="evenodd"></path></svg><style>@media (prefers-color-scheme: light) { :root { filter: none; } }
</style></svg>